Coordinates
version=1
nRows=7
nColumns=40
inDegrees=yes

Units are S.I. units (second, meters, Newtons, ...)
If the header above contains a line with 'inDegrees', this indicates whether rotational values are in degrees (yes) or radians (no).

endheader
time	pelvis_tilt	pelvis_list	pelvis_rotation	pelvis_tx	pelvis_ty	pelvis_tz	hip_flexion_r	hip_adduction_r	hip_rotation_r	knee_angle_r	knee_angle_r_beta	ankle_angle_r	subtalar_angle_r	mtp_angle_r	hip_flexion_l	hip_adduction_l	hip_rotation_l	knee_angle_l	knee_angle_l_beta	ankle_angle_l	subtalar_angle_l	mtp_angle_l	lumbar_extension	lumbar_bending	lumbar_rotation	arm_flex_r	arm_add_r	arm_rot_r	elbow_flex_r	pro_sup_r	wrist_flex_r	wrist_dev_r	arm_flex_l	arm_add_l	arm_rot_l	elbow_flex_l	pro_sup_l	wrist_flex_l	wrist_dev_l
      1.77000000	    -13.56913766	     -1.62165440	     -2.56970375	      0.16585920	      0.49401032	     -1.20345607	     95.73460409	    -42.22519479	     11.22720944	    114.62360105	      2.00055924	     32.43332111	      8.60646967	      0.00000000	    102.51847989	    -48.34575466	     19.84724905	    113.02176075	      1.97260185	     30.27555828	     21.02932221	      0.00000000	    -23.96164396	      2.22627854	      1.96627101	     44.99788938	    -15.00002201	     44.99788938	     75.00017585	     45.00000026	      0.00000000	      0.00000000	     44.99788938	    -15.00002201	     44.99788938	     75.00017585	     45.00000026	      0.00000000	      0.00000000
      1.77500000	    -13.44764035	     -1.63144388	     -2.56565896	      0.16597802	      0.49241759	     -1.20356236	     95.89415759	    -42.28208822	     11.46896581	    114.86817512	      2.00482786	     32.53508346	      8.71570677	      0.00000000	    102.71555608	    -48.34959119	     20.14387316	    113.27464487	      1.97701551	     30.38015234	     21.11238077	      0.00000000	    -24.16128394	      2.23750419	      1.97358951	     44.99794386	    -15.00002113	     44.99794386	     75.00017585	     45.00000026	      0.00000000	      0.00000000	     44.99794386	    -15.00002113	     44.99794386	     75.00017585	     45.00000026	      0.00000000	      0.00000000
      1.78000000	    -13.32881205	     -1.64528887	     -2.57621229	      0.16611320	      0.49087364	     -1.20366711	     96.04054338	    -42.32639081	     11.69302151	    115.10029314	      2.00887909	     32.60367162	      8.89627306	      0.00000000	    102.92372207	    -48.38201620	     20.43808338	    113.51999641	      1.98129770	     30.44401560	     21.25823052	      0.00000000	    -24.35920122	      2.26761002	      2.00826815	     44.99799597	    -15.00002030	     44.99799597	     75.00017585	     45.00000026	      0.00000000	      0.00000000	     44.99799597	    -15.00002030	     44.99799597	     75.00017585	     45.00000026	      0.00000000	      0.00000000
      1.78500000	    -13.17635833	     -1.65243185	     -2.55840588	      0.16623102	      0.48930238	     -1.20381305	     96.17168068	    -42.39327377	     11.95277982	    115.34151427	      2.01308919	     32.73216910	      8.90636646	      0.00000000	    103.06500575	    -48.34829166	     20.73355162	    113.78195639	      1.98586977	     30.61225906	     21.28042418	      0.00000000	    -24.58396592	      2.27401162	      1.98771330	     44.99804720	    -15.00001949	     44.99804720	     75.00017585	     45.00000026	      0.00000000	      0.00000000	     44.99804720	    -15.00001949	     44.99804720	     75.00017585	     45.00000026	      0.00000000	      0.00000000
      1.79000000	    -13.04381328	     -1.66162304	     -2.52666552	      0.16636560	      0.48773870	     -1.20397420	     96.32423256	    -42.48628419	     12.19917094	    115.58952331	      2.01741776	     32.84202570	      8.98338731	      0.00000000	    103.22245192	    -48.30548358	     21.01483304	    114.02324631	      1.99008107	     30.76872450	     21.38410758	      0.00000000	    -24.78843849	      2.30409841	      1.99687821	     44.99809649	    -15.00001873	     44.99809649	     75.00017585	     45.00000026	      0.00000000	      0.00000000	     44.99809649	    -15.00001873	     44.99809649	     75.00017585	     45.00000026	      0.00000000	      0.00000000
      1.79500000	    -12.90757936	     -1.67698341	     -2.56368883	      0.16647773	      0.48618144	     -1.20404462	     96.45552745	    -42.48799963	     12.42112785	    115.81974485	      2.02143589	     32.94957770	      9.07831115	      0.00000000	    103.41763940	    -48.34051864	     21.34044481	    114.29242406	      1.99477911	     30.87108635	     21.43526569	      0.00000000	    -24.99848135	      2.30401867	      2.02559395	     44.99814330	    -15.00001802	     44.99814330	     75.00017585	     45.00000026	      0.00000000	      0.00000000	     44.99814330	    -15.00001802	     44.99814330	     75.00017585	     45.00000026	      0.00000000	      0.00000000
      1.80000000	    -12.68567558	     -1.62324918	     -2.59129627	      0.16657770	      0.48496242	     -1.20404297	     96.51556109	    -42.47616287	     12.71578891	    116.03840236	      2.02525218	     33.11902523	      8.94324767	      0.00000000	    103.35031422	    -48.38677380	     21.47213023	    114.50634301	      1.99851270	     31.09719887	     21.37529403	      0.00000000	    -25.33025203	      2.19850573	      2.03727274	     44.99819556	    -15.00001723	     44.99819556	     75.00017585	     45.00000026	      0.00000000	      0.00000000	     44.99819556	    -15.00001723	     44.99819556	     75.00017585	     45.00000026	      0.00000000	      0.00000000
